/* XPM */
static char * bitcoin32_xpm[] = {
"32 32 265 2",
"  	c None",
". 	c #01435D",
"+ 	c #024662",
"@ 	c #024765",
"# 	c #034A69",
"$ 	c #024660",
"% 	c #054E6E",
"& 	c #055172",
"* 	c #065476",
"= 	c #034F6F",
"- 	c #085A7C",
"; 	c #095C82",
"> 	c #0A5E84",
", 	c #07577C",
"' 	c #0B638C",
") 	c #0E6791",
"! 	c #126F9C",
"~ 	c #0D638A",
"{ 	c #136F9D",
"] 	c #1574A3",
"^ 	c #1C86BC",
"/ 	c #197EB0",
"( 	c #1676A6",
"_ 	c #12719F",
": 	c #106D97",
"< 	c #167AAA",
"[ 	c #177AAC",
"} 	c #1A7DB0",
"| 	c #1B81B6",
"1 	c #1C87BD",
"2 	c #2A9DDD",
"3 	c #2A9AD9",
"4 	c #2DA9EE",
"5 	c #2FADF4",
"6 	c #2FAAF2",
"7 	c #299EDD",
"8 	c #2595D2",
"9 	c #208CC5",
"0 	c #1E86BC",
"a 	c #1B80B4",
"b 	c #187BAD",
"c 	c #1776A6",
"d 	c #1D87BC",
"e 	c #1D85BB",
"f 	c #1E88BF",
"g 	c #208BC3",
"h 	c #218EC8",
"i 	c #2494D0",
"j 	c #2699D7",
"k 	c #2CA5E7",
"l 	c #2CA6EA",
"m 	c #2FA6E9",
"n 	c #2FACF3",
"o 	c #2FABF1",
"p 	c #2FABF2",
"q 	c #2FA8ED",
"r 	c #2EAAF0",
"s 	c #2BA4E6",
"t 	c #289DDC",
"u 	c #2697D3",
"v 	c #2390CB",
"w 	c #1D88BF",
"x 	c #2493CE",
"y 	c #2495D1",
"z 	c #2696D3",
"A 	c #279AD7",
"B 	c #2AA1E2",
"C 	c #2DA5E9",
"D 	c #2EABEF",
"E 	c #2FAAEE",
"F 	c #2EABF1",
"G 	c #30ADF5",
"H 	c #2FADF2",
"I 	c #2FACF2",
"J 	c #2DAAEE",
"K 	c #2EA8EC",
"L 	c #2EA8EB",
"M 	c #2EA6E9",
"N 	c #289EDE",
"O 	c #2599D6",
"P 	c #29A2E3",
"Q 	c #2BA5E8",
"R 	c #2DA5E8",
"S 	c #2EA7EA",
"T 	c #2DA9ED",
"U 	c #218EC7",
"V 	c #1B83B8",
"W 	c #30B0F5",
"X 	c #2BA2E5",
"Y 	c #2FADF3",
"Z 	c #2FACF1",
"` 	c #2FABF0",
" .	c #2DA9EC",
"..	c #2EABF3",
"+.	c #299FDE",
"@.	c #2393CF",
"#.	c #1E88BE",
"$.	c #187EB3",
"%.	c #2DA6E9",
"&.	c #279BD8",
"*.	c #218EC9",
"=.	c #1C86BD",
"-.	c #30B0F6",
";.	c #2FAEF4",
">.	c #2EACF3",
",.	c #2FA9EF",
"'.	c #30AEF4",
").	c #2FAEF7",
"!.	c #2CA4E7",
"~.	c #2698D4",
"{.	c #208EC8",
"].	c #1E89C0",
"^.	c #187CB0",
"/.	c #1574A4",
"(.	c #0F6A95",
"_.	c #2FAAEF",
":.	c #2EAAEE",
"<.	c #2EACF4",
"[.	c #279AD8",
"}.	c #2494CD",
"|.	c #1C84B9",
"1.	c #1677A7",
"2.	c #116C99",
"3.	c #2EABF2",
"4.	c #29A0DF",
"5.	c #218DC6",
"6.	c #177DB0",
"7.	c #14719F",
"8.	c #0E6691",
"9.	c #095D83",
"0.	c #2DA5E7",
"a.	c #2699D6",
"b.	c #228DC6",
"c.	c #1D87BE",
"d.	c #1577A8",
"e.	c #106A96",
"f.	c #0B6188",
"g.	c #07567A",
"h.	c #2FA8EC",
"i.	c #2492CD",
"j.	c #1E87BE",
"k.	c #1A80B4",
"l.	c #13719F",
"m.	c #0E658E",
"n.	c #095B80",
"o.	c #1575A6",
"p.	c #208BC4",
"q.	c #1B81B4",
"r.	c #1878AA",
"s.	c #0E6B96",
"t.	c #0A5F86",
"u.	c #075577",
"v.	c #034D6B",
"w.	c #1472A1",
"x.	c #12709E",
"y.	c #1B81B5",
"z.	c #2493CF",
"A.	c #2391CC",
"B.	c #177AAD",
"C.	c #0C668F",
"D.	c #08597D",
"E.	c #055070",
"F.	c #034663",
"G.	c #1679AB",
"H.	c #2594D1",
"I.	c #1F8AC3",
"J.	c #1B7FB2",
"K.	c #0B5F87",
"L.	c #065475",
"M.	c #01435E",
"N.	c #116E9B",
"O.	c #0D648D",
"P.	c #0D648C",
"Q.	c #08587C",
"R.	c #045070",
"S.	c #00405C",
"T.	c #2EADF2",
"U.	c #269CDB",
"V.	c #0F6A94",
"W.	c #0A5F85",
"X.	c #034B69",
"Y.	c #1272A0",
"Z.	c #0F6892",
"`.	c #0A5D83",
" +	c #065779",
".+	c #014662",
"++	c #024663",
"@+	c #034865",
"#+	c #034C6B",
"$+	c #044F70",
"%+	c #2EAAED",
"&+	c #2291CB",
"*+	c #187DB2",
"=+	c #075A7F",
"-+	c #044F6F",
";+	c #01445F",
">+	c #003C55",
",+	c #003D56",
"'+	c #106E9A",
")+	c #0C658C",
"!+	c #044A68",
"~+	c #044B6B",
"{+	c #044D6C",
"]+	c #065273",
"^+	c #095D82",
"/+	c #096288",
"(+	c #2EAAEF",
"_+	c #2AA1E1",
":+	c #1B80B3",
"<+	c #106C9A",
"[+	c #003F57",
"}+	c #003C53",
"|+	c #055273",
"1+	c #065374",
"2+	c #075678",
"3+	c #08587D",
"4+	c #095B81",
"5+	c #0B6087",
"6+	c #0C638B",
"7+	c #0E658F",
"8+	c #0F6994",
"9+	c #126D9B",
"0+	c #197DAE",
"a+	c #14709F",
"b+	c #0F6791",
"c+	c #055474",
"d+	c #095D84",
"e+	c #0F6993",
"f+	c #106C99",
"g+	c #116E9A",
"h+	c #12719E",
"i+	c #177DAE",
"j+	c #299FDF",
"k+	c #208CC4",
"l+	c #1B82B8",
"m+	c #034D6C",
"n+	c #02425E",
"o+	c #167AAC",
"p+	c #187EB0",
"q+	c #197FB1",
"r+	c #1C87BE",
"s+	c #2EA9F0",
"t+	c #2BA4E5",
"u+	c #279BD9",
"v+	c #2190CC",
"w+	c #1F8CC6",
"x+	c #208CC6",
"y+	c #2EA9EE",
"z+	c #2AA1E3",
"A+	c #279CD9",
"B+	c #28A0DF",
"C+	c #2EA7EB",
"D+	c #2BA3E6",
"E+	c #2CA7EA",
"F+	c #2FAAF1",
"G+	c #2CA4E6",
"H+	c #2293CD",
"I+	c #2FABEF",
"J+	c #2EADF5",
"K+	c #299DDD",
"L+	c #2596D3",
"M+	c #208BC5",
"N+	c #2EADF4",
"O+	c #2391CE",
"P+	c #1E87BD",
"                                                                ",
"                            .   + @                             ",
"                            # $ % &                             ",
"                            * = - ;                             ",
"                            > , ' )                             ",
"                          ! ) ~ ! { ]                           ",
"                      ^ / ( _ : < [ } | 1             2 3       ",
"      4 5 6       7 8 9 0 a b c d e f g h i j       k l m       ",
"        n o p q r s t u v g w     x y z A t B C D E E F         ",
"    G H   5 I J K L M B N O         P Q R S L L T p o   U V     ",
"  W o L X     Y Z T ` F                 o `  .Z ..  +.@.#.$.    ",
"      %.&.*.=.    -.        ;.>.,.'.        ).    !.~.{.        ",
"          ].^./.(.        Z _.Z :.` Z <.      I S [.}.          ",
"          |.1.2.~         ` 3.      ` p       K 4.i 5.          ",
"          6.7.8.9.      5 Z         p `       0.a.b.c.          ",
"          d.e.f.g.      5 I         h._.      7 i.j.k.          ",
"          l.m.n.&       5 _.o.      Q Z       u p.q.r.          ",
"          s.t.u.v.      5 _.w.x.y.z.R n       A.e B.w.          ",
"          C.D.E.F.      5 Z G.x.y.H.          I.J./.2.          ",
"          K.L.# M.      5 '.                  =.[ N.O.          ",
"        P.Q.R.@   S.      T.                U.    V.W.* X.      ",
"    Y.Z.`. +  .+++@+#+$+                %++.&+f *+  =+-+;+>+,+  ",
"    '+)+  !+~+{+E.]+u.Q.^+/+        '.(+_+8 I.:+( <+'   [+}+    ",
"        |+1+2+3+4+> 5+6+7+8+9+    n T 0.[.*.e 0+a+b+^+c+        ",
"        n.d+      e+f+g+h+] 1.i+F T S j+i k+l+      Q.m+n+      ",
"        P.            o+p+q+y.r+s+K t+u+v+                      ",
"                          w+x+@.y+S z+                          ",
"                            A+B+C+D+                            ",
"                            E+F+G+t H+                          ",
"                            I+J+K+L+M+                          ",
"                            N+-.  O+P+                          ",
"                                                                "};
