/* XPM */
static char * bitcoin64_xpm[] = {
"64 64 269 2",
"  	c None",
". 	c #014C65",
"+ 	c #03506A",
"@ 	c #024E67",
"# 	c #014C64",
"$ 	c #024F68",
"% 	c #04516B",
"& 	c #065570",
"* 	c #04526D",
"= 	c #035069",
"- 	c #014D66",
"; 	c #05546F",
"> 	c #065571",
", 	c #075672",
"' 	c #095A77",
") 	c #075773",
"! 	c #06546F",
"~ 	c #04526C",
"{ 	c #075772",
"] 	c #085874",
"^ 	c #085976",
"/ 	c #0A5B79",
"( 	c #0C5E7D",
"_ 	c #0A5C79",
": 	c #0B5D7B",
"< 	c #0B5E7C",
"[ 	c #0C5F7E",
"} 	c #0D6180",
"| 	c #0E6383",
"1 	c #0D607F",
"2 	c #0A5B78",
"3 	c #0E6281",
"4 	c #0F6585",
"5 	c #106687",
"6 	c #116889",
"7 	c #0F6586",
"8 	c #0E6282",
"9 	c #0C607E",
"0 	c #116788",
"a 	c #11688A",
"b 	c #126A8C",
"c 	c #136B8E",
"d 	c #146C8F",
"e 	c #0F6485",
"f 	c #156D91",
"g 	c #156F93",
"h 	c #167094",
"i 	c #177196",
"j 	c #156E92",
"k 	c #136C8E",
"l 	c #12698B",
"m 	c #187398",
"n 	c #18749A",
"o 	c #19759B",
"p 	c #19769C",
"q 	c #167095",
"r 	c #1A769D",
"s 	c #1B789F",
"t 	c #1B79A0",
"u 	c #1C7AA2",
"v 	c #2080AA",
"w 	c #1E7DA6",
"x 	c #1B779E",
"y 	c #177297",
"z 	c #1D7BA4",
"A 	c #1E7EA7",
"B 	c #1F80A9",
"C 	c #2081AB",
"D 	c #2183AE",
"E 	c #2487B3",
"F 	c #2284AF",
"G 	c #2081AC",
"H 	c #1F7FA8",
"I 	c #1D7CA5",
"J 	c #1C79A1",
"K 	c #1A779D",
"L 	c #2182AC",
"M 	c #2283AE",
"N 	c #2285B0",
"O 	c #2386B2",
"P 	c #2487B4",
"Q 	c #2589B6",
"R 	c #268BB9",
"S 	c #2A91C1",
"T 	c #288EBD",
"U 	c #2589B5",
"V 	c #2386B1",
"W 	c #2588B5",
"X 	c #258AB7",
"Y 	c #278DBB",
"Z 	c #288EBC",
"` 	c #298FBE",
" .	c #2A91C0",
"..	c #36A5DB",
"+.	c #36A5DC",
"@.	c #36A6DD",
"#.	c #3EB4F0",
"$.	c #3EB4EF",
"%.	c #309BCE",
"&.	c #2E98CA",
"*.	c #2C95C6",
"=.	c #2B93C3",
"-.	c #2990BF",
";.	c #288DBC",
">.	c #268BB8",
",.	c #2488B5",
"'.	c #2385B1",
").	c #2183AD",
"!.	c #278CBA",
"~.	c #288FBE",
"{.	c #2990C0",
"].	c #2A92C1",
"^.	c #2C94C5",
"/.	c #2D96C7",
"(.	c #2D97C9",
"_.	c #2E99CB",
":.	c #37A8DF",
"<.	c #38A9E1",
"[.	c #39AAE2",
"}.	c #39ABE4",
"|.	c #3EB3EF",
"1.	c #34A2D7",
"2.	c #329FD4",
"3.	c #319DD0",
"4.	c #2F9ACD",
"5.	c #2E97C9",
"6.	c #2C95C5",
"7.	c #2A92C2",
"8.	c #268AB7",
"9.	c #2D97C8",
"0.	c #2F99CC",
"a.	c #309CD0",
"b.	c #319ED1",
"c.	c #329FD3",
"d.	c #33A1D6",
"e.	c #39AAE3",
"f.	c #3AADE6",
"g.	c #3BAEE7",
"h.	c #3CAFE9",
"i.	c #3CB1EB",
"j.	c #3AACE5",
"k.	c #37A7DE",
"l.	c #35A4DA",
"m.	c #34A1D6",
"n.	c #309CCF",
"o.	c #288FBD",
"p.	c #2D96C8",
"q.	c #2F99CB",
"r.	c #319DD1",
"s.	c #33A0D5",
"t.	c #34A3D8",
"u.	c #3BADE6",
"v.	c #3CB0EB",
"w.	c #3DB2EC",
"x.	c #3EB2ED",
"y.	c #3EB3EE",
"z.	c #3EB3ED",
"A.	c #3DB1EB",
"B.	c #38A9E0",
"C.	c #35A3D9",
"D.	c #33A1D5",
"E.	c #329ED2",
"F.	c #2B93C4",
"G.	c #309BCF",
"H.	c #32A0D4",
"I.	c #34A2D8",
"J.	c #37A6DD",
"K.	c #39ABE3",
"L.	c #3CAFE8",
"M.	c #3CB0EA",
"N.	c #3DB1EC",
"O.	c #33A0D4",
"P.	c #2F9BCD",
"Q.	c #35A5DB",
"R.	c #37A7DF",
"S.	c #3AACE4",
"T.	c #3BAEE8",
"U.	c #3DB2ED",
"V.	c #3AADE5",
"W.	c #3BAFE8",
"X.	c #2B94C4",
"Y.	c #2284B0",
"Z.	c #278CB9",
"`.	c #3CB0E9",
" +	c #2F9ACC",
".+	c #2991C0",
"++	c #268AB8",
"@+	c #1A779E",
"#+	c #2488B4",
"$+	c #19749A",
"%+	c #2385B0",
"&+	c #2182AD",
"*+	c #187499",
"=+	c #1F7FA9",
"-+	c #1C7BA3",
";+	c #1A769C",
">+	c #3AABE4",
",+	c #37A7DD",
"'+	c #2E98C9",
")+	c #1E7DA5",
"!+	c #12698C",
"~+	c #35A4D9",
"{+	c #106788",
"]+	c #3DB2EE",
"^+	c #36A6DC",
"/+	c #1D7CA4",
"(+	c #0F6484",
"_+	c #319ED2",
":+	c #1B79A1",
"<+	c #136B8D",
"[+	c #0D6181",
"}+	c #39AAE1",
"|+	c #1D7BA3",
"1+	c #177296",
"2+	c #146D90",
"3+	c #1B78A0",
"4+	c #106586",
"5+	c #0D6080",
"6+	c #2B92C2",
"7+	c #177195",
"8+	c #116789",
"9+	c #085975",
"0+	c #1F7EA8",
"a+	c #0C607F",
"b+	c #095B78",
"c+	c #329ED3",
"d+	c #298FBF",
"e+	c #106688",
"f+	c #0D6281",
"g+	c #05536E",
"h+	c #33A2D7",
"i+	c #146D91",
"j+	c #12688A",
"k+	c #03516A",
"l+	c #1F80AA",
"m+	c #166F93",
"n+	c #0A5C7A",
"o+	c #04536D",
"p+	c #0B5E7D",
"q+	c #095976",
"r+	c #004C64",
"s+	c #014D65",
"t+	c #187399",
"u+	c #19759C",
"v+	c #167195",
"w+	c #075774",
"x+	c #095A78",
"y+	c #38AAE1",
"z+	c #136A8D",
"A+	c #004B63",
"B+	c #065671",
"C+	c #085875",
"D+	c #0A5D7A",
"E+	c #0B5D7C",
"F+	c #024E68",
"G+	c #1F7EA7",
"H+	c #12698A",
"I+	c #0C5F7D",
"J+	c #146C90",
"K+	c #156E91",
"L+	c #136C8F",
"M+	c #38A8DF",
"N+	c #1B789E",
"O+	c #187298",
"P+	c #1C7AA1",
"Q+	c #095A76",
"R+	c #156F92",
"S+	c #2C96C7",
"T+	c #35A4DB",
"                                                      .               . .                                                       ",
"                                                      + @ #         $ + %                                                       ",
"                                                      & * = -     * ; > ,                                                       ",
"                                                      ' ) ! ~   { ] ^ ' /                                                       ",
"                                                      ( _ ^ ,   _ : < [ }                                                       ",
"                                                      | 1 < 2   } 3 | 4 5                                                       ",
"                                                      6 7 8 9   5 0 a b c                                                       ",
"                                                      d b 0 e     d f g h                                                       ",
"                                                      i j k l     i m n o                                                       ",
"                                                      p m q f     r s t u                                                       ",
"                                                  v w u x o y     z w A B C D                                                   ",
"                                                E F G H I J K     C L M N O P Q R                                               ",
"                                            S T R U O M C A z     V E W X R Y Z `  .                          ..+.@.            ",
"            #.$.$.                      %.&.*.=.-.;.>.,.'.).v     >.!.;.~.{.].=.^./.(._.                    :.<.[.}.            ",
"            #.#.#.$.|.                1.2.3.4.5.6.7.` Y 8.P N     -.S =.^.*.9.&.0.%.a.b.c.d.            e.}.f.g.h.i.            ",
"            #.#.#.#.$.$.          j.<.k.l.m.c.n.0.9.^.S o.!.Q     *.p.&.q.4.n.r.c.s.d.t.l.+.k.      u.g.h.v.w.x.y.y.            ",
"            #.#.#.#.#.#.$.$.  y.z.A.g.}.B.@.C.D.E.%._./.F. .Z     4.G.3.E.H.d.I.l...J.:.<.K.j.u.L.M.N.x.y.y.y.|.|.              ",
"                #.#.#.#.#.#.$.|.|.y.x.M.u.K.:.+.t.O.r.P.&.*.        s.1.C.Q.@.R.B.[.S.f.T.M.A.U.y.y.y.|.|.|.$.$.                ",
"        #.#.$.    #.#.#.#.#.#.$.$.|.|.y.w.h.V.[.k.Q.1.c.                :.[.}.V.g.h.A.w.z.y.y.|.|.|.$.$.$.$.    2.%.p.S         ",
"      #.#.$.|.y.M.    #.#.#.#.#.#.$.$.|.y.y.N.W.S.<.@.                      M.w.x.y.y.|.|.|.|.$.$.$.#.#.#.    I.r._.X.o.X Y.    ",
"  #.#.#.#.$.|.U.g.B.      #.#.#.#.#.#.$.$.|.y.x.M.                            y.|.|.|.$.$.$.#.#.#.#.#.    B.Q.H.P./. .Z.E       ",
"      #.$.|.y.`.K.@.d.a.      #.#.#.#.#.#.$.|.                                    $.#.#.#.#.#.#.#.    M.S.k.1.3.&.=.Z 8.        ",
"          y.N.f.:.C.E. +*.-.    #.#.#.#.#.#.              #.#.#.#.#.#.#.              #.#.#.#.      x.g.B.l.c. +*..+            ",
"            h.[.+.s.n.9.7.Y W M     #.#.              #.#.#.#.#.#.#.#.#.#.#.              #.    |.y.M.K.@.d.n.5.                ",
"                I.b._.^.` ++V C I @+                #.#.#.#.#.#.#.#.#.#.#.#.#.              #.$.|.w.f.:.C.E.4.                  ",
"                    /.S Y #+D A J $+                #.#.#.#.#.#.#.#.#.#.#.#.#.#.            $.|.y.h.[...s.%.                    ",
"                    F.o.X %+v z K y               #.#.#.#.#.#.      #.#.#.#.#.#.            $.y.N.j.k.I.r.&.                    ",
"                    .+!.E &+w t *+g               #.#.#.#.#.            #.#.#.#.#.          |.z.T.<.l.2.4.*.                    ",
"                    Z Q F =+-+;+i d             #.#.#.#.#.              #.#.#.#.#.          y.v.>+,+1.3.'+=.                    ",
"                    R O G )+s m j !+            #.#.#.#.#.                #.#.#.#.          U.g.B.~+c. +6.-.                    ",
"                    W M H u o q c {+            #.#.#.#.a.                ]+$.#.#.          M.K.^+d.n.9.7.Y                     ",
"                    '.C /+@+y f l (+            #.#.#.#..+              K.N.|.#.#.          f.:.t._+_.X.~.8.                    ",
"                    ).A :+$+h <+5 [+            #.#.#.#..+y             }+N.|.#.#.          [...s.%./.S !.E                     ",
"                    v |+r 1+2+a | (             #.#.#.#..+m u       4.1.}+N.|.#.#.          k.1.r.&.=.T Q F                     ",
"                    w 3+*+g b 4+5+_             #.#.#.#..+m |+&+++6+ +1.}+N.|.#.            l.2.4.*.{.R O G                     ",
"                    u p 7+d 8+8 < 9+            #.#.#.#..+m |+&+++6+ +1.}+N.|.              d.a.5.6+;.W M 0+                    ",
"                    s m j l e a+b+,             #.#.#.#..+m |+&+++6+ +1.}+A.                c+0.^.d+++V C /+                    ",
"                    o h c e+f+: ] g+            #.#.#.#.d.m |+&+++6+ +h+B.                  n.9.].Y #+).A t                     ",
"                    y i+j+(+[ ' > k+            #.#.#.#.#.                                  _.X.~.X N l+-+;+                    ",
"                    m+<+5 } n+) o+@             #.#.#.#.#.                                  /. .!.E L w s m j l                 ",
"                p i 2+6 | p+q+&     r+s+        #.#.#.#.#.                              [.^+    Q F H u o h c 5 }               ",
"            /+s t+g b 7 1 _ ]     @ = % *         #.#.#.                              j.:.t._+_.    I @+y i+a | p+^ ;           ",
"          H u u+v+d 0 8 p+    % ~ g+& , w+9+x+                                    x.W.y+..O.%./.S !.    m+z+4+1 / , % s+A+      ",
"      '.C I @+m j l 4     ; ! B+) C+' / D+< [ } 8                             |.y.A.S.k.1.r.&.F.o.X N     8+8 E+C+g+F+A+A+A+A+  ",
"    #+D G+J o h c     { ) ] q+b+n+< [ 1 3 | e 5 8+H+<+                    #.$.|.U.g.B.l.c.4.*..+Z.E L w s     b+B+k+# A+A+A+    ",
"        /+K y j     q+x+_ : I+a+[+| (+4+0 a b c J+K+g q                 #.$.|.y.M.K.@.d.a.5.=.Z Q F =+u u+v+L+    @ A+A+        ",
"                n+: p+9 } 8 (+4+e+6 l <+d i+g h i m $+p @+3+        #.#.#.$.y.w.f.M+C.E. +6.-.>.O C I N+m K+l (+                ",
"              [ } 8 | 4 5 8+l b k 2+j h i O+n o K s J -+I w H     #.#.#.$.|.y.h.[.+.s.n.9.7.Y ,.F   P+o h c 5 [+n+^             ",
"            | e 5 0 j+b c k       y t+o r N+t u /+w 0+l+C ).F %+  #.#.#.|.y.A.j.k.t.b._.X.` >.          2+a | ( Q+,             ",
"            j+!+<+d K+j             s P+z )+A =+C &+F %+O #+Q 8.  #.#.$.|.x.T.<.Q.H.%./.S                 4+5+_ ) g+            ",
"            K+R+h i                     B L D N O P U 8.R Y T `   #.$.|.y.M.S.,+1.3.&.^.                      9+; +             ",
"            m *+n                           #+X R !.Z ` .+7.F.^.  #.$.|.U.g.B.l.c.%.                                            ",
"                                                -.].=.^.S+(.&.0.  $.|.y.`.K.^+m.                                                ",
"                                                    &.0.%.n.b.c.  $.y.N.f.M+l.                                                  ",
"                                                      _+O.d.t.~+  |.y.L.[.                                                      ",
"                                                      l...@.:.B.  y.A.j.k.                                                      ",
"                                                      <.[.S.f.g.  x.g.<.T+                                                      ",
"                                                      T.h.A.w.x.  M.}.J.1.                                                      ",
"                                                      z.y.y.y.|.  u.B.l.c.                                                      ",
"                                                      |.|.|.$.$.  K.^+d.n.                                                      ",
"                                                      $.$.#.#.#.  :.t.E.q.                                                      ",
"                                                      #.#.#.#.    ..s.%.p.                                                      ",
"                                                      #.#.#.        r.&.X.                                                      ",
"                                                        #.               .                                                      "};
