/* XPM */
static char * bitcoin16_xpm[] = {
"16 16 85 1",
" 	c None",
".	c #04506F",
"+	c #065476",
"@	c #0A638C",
"#	c #0F6B95",
"$	c #218FCA",
"%	c #1A7EB2",
"&	c #1576A6",
"*	c #1A80B6",
"=	c #1C84BA",
"-	c #218FC8",
";	c #2CA9EE",
">	c #31B0F6",
",	c #2FAEF4",
"'	c #2EA9ED",
")	c #2AA0E0",
"!	c #2494D1",
"~	c #289BDB",
"{	c #2AA2E3",
"]	c #2DA6EA",
"^	c #2FADF3",
"/	c #30ADF5",
"(	c #279EDE",
"_	c #2494D0",
":	c #30ADF4",
"<	c #2FADF5",
"[	c #2EAEF4",
"}	c #2BA7E9",
"|	c #2496D1",
"1	c #1D83BC",
"2	c #177AAC",
"3	c #0C678E",
"4	c #30AFF8",
"5	c #2EACF2",
"6	c #30A9F0",
"7	c #29A1E1",
"8	c #106D99",
"9	c #085A7E",
"0	c #31B1F8",
"a	c #32B1F8",
"b	c #2AA2E2",
"c	c #2291CC",
"d	c #0B6188",
"e	c #034E6E",
"f	c #2EADF5",
"g	c #1575A4",
"h	c #218EC6",
"i	c #2DAAEF",
"j	c #2693D0",
"k	c #1C84B9",
"l	c #055678",
"m	c #024560",
"n	c #30B1F7",
"o	c #1E88C1",
"p	c #1678A9",
"q	c #106E9B",
"r	c #095E86",
"s	c #034B69",
"t	c #014662",
"u	c #034D6C",
"v	c #2BA5E5",
"w	c #2292CC",
"x	c #116F9D",
"y	c #065578",
"z	c #01435E",
"A	c #055376",
"B	c #065475",
"C	c #07587D",
"D	c #0A5E84",
"E	c #0D658E",
"F	c #2FAAEF",
"G	c #2698D5",
"H	c #116F9B",
"I	c #075A7D",
"J	c #0C628A",
"K	c #1372A2",
"L	c #177BAD",
"M	c #1B7FB4",
"N	c #30AEF5",
"O	c #2BA2E4",
"P	c #2192CC",
"Q	c #2599D6",
"R	c #2FAEF5",
"S	c #2DA9ED",
"T	c #29A5E6",
"                ",
"       .+       ",
"       @#       ",
"     $%&*=-  ;  ",
"  >,')!  ~{]^^  ",
" /(_:<    [:}|1 ",
"   23 :4/5 67   ",
"   89 0  a bc   ",
"   de fghi jk   ",
"   lm n    op   ",
" qrstu    vwxyz ",
"  ABCDE  FGkHI  ",
"  J  KLMNOP     ",
"       QR       ",
"       ST       ",
"                "};
